<!-- Generator: Adobe Illustrator 22.0.0, SVG Export Plug-In  -->
<svg version="1.1"
	 xmlns="http://www.w3.org/2000/svg" xmlns:xlink="http://www.w3.org/1999/xlink" xmlns:a="http://ns.adobe.com/AdobeSVGViewerExtensions/3.0/"
	 x="0px" y="0px" width="198.425px" height="61.84px" viewBox="0 0 198.425 61.84"
	 style="enable-background:new 0 0 198.425 61.84;" xml:space="preserve">
<style type="text/css">
	.st0{fill:none;}
	.st1{fill:#D87327;}
	.st2{fill:#A84525;}
	.st3{fill:#73AE43;}
	.st4{fill:#E5C0B1;}
</style>
<defs>
</defs>
<g>
	<path class="st0" d="M43.28,26.496c-0.719,0.176-1.18,0.814-0.991,1.584c0.189,0.77,0.893,1.123,1.612,0.946
		c0.719-0.176,2.125-1.042,1.837-1.792C45.449,26.485,43.999,26.32,43.28,26.496z"/>
	<path class="st1" d="M51.439,27.909c-1.185-3.085-7.153-3.766-10.11-3.041c-0.392,0.096-0.763,0.227-1.114,0.387l-1.571-1.136
		c-0.444-0.321-1.062,0.008-1.044,0.556l0.078,2.359c0.004,0.129,0.048,0.245,0.114,0.343c-0.67,1.117-0.913,2.5-0.543,4.011
		c0.777,3.17,3.674,4.619,6.632,3.894C46.84,34.557,52.625,30.995,51.439,27.909z M43.901,29.027
		c-0.719,0.176-1.423-0.176-1.612-0.946c-0.189-0.77,0.273-1.408,0.991-1.584c0.719-0.176,2.169-0.011,2.457,0.739
		C46.025,27.985,44.619,28.85,43.901,29.027z"/>
	<path class="st2" d="M43.204,54.364c2.374-2.663,3.591-6.38,3.064-9.921c-0.861-5.786-6.123-10.312-11.957-10.312
		c-2.428,0-4.891,0.736-6.873,2.152c1.819-1.3,5.287-0.342,6.908,0.796c1.903,1.335,3.053,3.575,3.053,5.896
		c0,3.775-3.155,6.581-6.617,7.533c-9.163,2.52-18.525-4.383-18.525-13.911c0-4.35,2.02-8.513,5.417-11.226
		c4.032-3.22,8.92-3.386,13.766-2.479c7.479,1.4,14.96-4.037,14.96-11.84c0-4.134-2.076-6.891-5.242-9.07
		C39.701,0.978,38.014,0.285,36.192,0c4.254,0.859,6.941,4.648,5.488,8.761c-2.268,6.424-9.254,3.96-14.219,3.713
		c-6.423-0.319-12.779,2.305-17.405,6.708c-4.015,3.821-6.727,8.965-7.43,14.477c-0.124,0.974-0.187,1.956-0.187,2.938
		c0,13.405,10.867,24.272,24.272,24.272c0.633,0,3.297-0.01,3.995-0.005c5.026,0.034,10.054-0.07,15.079-0.12
		c-0.43-2.425-2.886-4.311-5.34-4.101C41.481,56.033,42.407,55.258,43.204,54.364z"/>
	<path class="st3" d="M198.091,49.776c-0.398-1.41-1.39-2.94-2.976-4.588c-1.586-1.649-2.516-2.949-2.787-3.901
		c-0.217-0.768-0.169-3.438-0.247-3.713c-0.041-0.146-0.156-0.22-0.343-0.22c-0.2,0-5.938,1.517-5.943,1.575
		c-0.36,4.098-2.019,8.414-4.97,12.945l-0.001-0.002c-1.286,1.887-2.314,3.129-3.083,3.724c-0.769,0.596-1.632,0.894-2.587,0.894
		c-0.695,0-1.338-0.27-1.931-0.81c-0.593-0.541-1.011-1.242-1.254-2.103c-0.357-1.265-0.511-2.967-0.464-5.106l0.135-10.613
		l4.261-0.331l-0.265-4.231l-3.903,0.222l0.208-10.448l-7.075,2.401l-0.22,8.572l-3.975,0.111l0.317,4.313l3.46-0.111l-0.019,8.616
		c-0.048,1.882,0.017,3.541,0.193,4.98l-1.689,2.098c-1.42,1.741-2.617,2.611-3.592,2.611c-1.199,0-2.04-0.86-2.526-2.583
		c-0.253-0.898-0.366-2.464-0.339-4.698c0.027-2.235,0.145-6.554,0.356-12.067l-7.216,1.961l-0.378,11.704
		c-0.031,1.154-0.548,2.506-1.553,4.054c-1.005,1.548-1.993,2.322-2.967,2.323c-1.348,0.001-2.269-0.877-2.764-2.635
		c-0.695-2.489-0.739-8.57-0.131-17.351l-7.086,1.911c-0.669,6.924-0.466,12.291,0.608,16.1c0.558,1.978,1.43,3.543,2.616,4.697
		c1.186,1.154,2.491,1.73,3.913,1.73c1.553-0.001,2.996-0.528,4.327-1.582c1.332-1.054,2.714-2.689,4.148-4.906
		c0.558,1.978,1.397,3.544,2.518,4.697c1.121,1.154,2.42,1.73,3.898,1.729c1.329-0.001,2.673-0.546,4.031-1.637
		c1.306-1.048,2.828-2.651,4.564-4.808c0.617,1.803,1.527,3.285,2.733,4.448c1.375,1.328,2.868,1.991,4.477,1.99
		c1.554-0.001,3.038-0.546,4.453-1.637c1.414-1.09,2.978-2.78,4.691-5.071c2.319-3.591,4.082-7.099,5.287-10.525
		c0.777,1.3,2.075,2.912,3.891,4.834c1.814,1.922,2.884,3.46,3.208,4.614c0.336,1.191,0.149,2.304-0.56,3.339
		c-0.71,1.035-1.636,1.553-2.777,1.553c-1.142,0-2.158-0.75-3.05-2.252c-0.891-1.501-1.636-2.252-2.235-2.252
		c-0.449,0-1.021,0.614-1.713,1.841c-0.693,1.228-0.977,2.061-0.854,2.5c0.212,0.751,0.934,1.456,2.169,2.115
		c1.234,0.659,2.487,0.989,3.76,0.988c2.938-0.001,5.412-1.303,7.421-3.904C198.271,55.28,198.881,52.578,198.091,49.776z"/>
	<path class="st3" d="M129.915,26.488c0-0.077,0.009-0.152,0.012-0.229c0.121-3.333,2.855-6.001,6.218-6.001
		c1.602,0,3.057,0.61,4.161,1.603c-1.143-3.334-4.225-5.76-7.907-5.93c-0.137-0.006-0.272-0.021-0.411-0.021
		c-4.826,0-8.74,3.884-8.799,8.696h-0.005v0.109v3.954c-0.035,0.827-0.04,1.67-0.025,2.545c0.067,3.952,0,7.916,0,11.869
		c0,0.41,0,0.82,0,1.23l-13.123-27.248l-0.118-0.246c-0.288-0.513-0.734-0.85-1.254-0.852l-4.227,0.891
		c-0.023-0.002-0.045-0.01-0.069-0.01c-0.024,0-0.046,0.008-0.069,0.01c-0.823,0.05-1.479,0.958-1.506,2.092
		c-0.001,0.024-0.005,0.045-0.005,0.069c0,0.024,0.005,0.046,0.005,0.069c0,3.253,0,6.506,0,9.76c0,4.372,0,8.744,0,13.115
		c0,0.972,0,1.944,0,2.916c0,0.905,0.012,1.835-0.015,2.76v2.966c0,0.079-0.009,0.155-0.012,0.233
		c-0.123,3.392-2.905,6.107-6.328,6.107c-1.63,0-3.112-0.62-4.235-1.631c0.241,0.703,0.571,1.364,0.97,1.975
		c1.524,2.339,4.107,3.923,7.077,4.06c0.14,0.006,0.277,0.021,0.418,0.021c4.911,0,8.895-3.953,8.955-8.849h0.006v-0.111v-4.024
		c0.002-0.053,0.002-0.107,0.004-0.159c0.03-0.791,0.036-1.596,0.022-2.43c-0.012-0.724-0.016-1.449-0.021-2.174
		c-0.024-1.23-0.038-2.459-0.035-3.709c0.002-1.192,0.004-2.383,0.005-3.575c0.001-0.596,0.001-1.192,0.001-1.787
		c0-0.169,0.032-0.503,0.049-0.832c0.017-0.341,0.019-0.677-0.048-0.817l12.973,26.938c0.072,0.229,0.174,0.435,0.296,0.616
		c0.288,0.427,0.697,0.697,1.154,0.697l4.362-0.891c0.872,0,1.58-0.972,1.58-2.17V41.931c0-2.308-0.032-4.644-0.045-6.981
		c-0.003-0.525-0.01-1.05-0.01-1.575v-0.202V26.488z"/>
	<g>
		<path class="st2" d="M45.737,27.235c-0.121-0.315-0.448-0.526-0.839-0.652c-0.417,0.062-0.738,0.418-0.738,0.852
			c0,0.478,0.387,0.865,0.865,0.865c0.099,0,0.193-0.02,0.281-0.051C45.65,27.937,45.868,27.574,45.737,27.235z"/>
		<path class="st2" d="M51.439,27.909c-0.068-0.178-0.154-0.347-0.253-0.509c-0.445-0.036-1.187-0.052-1.187,0.251
			c0,0.433,0.973,1.298,1.568,1.298c0.007,0,0.012-0.003,0.019-0.003C51.612,28.597,51.57,28.25,51.439,27.909z"/>
	</g>
	<g>
		<path class="st2" d="M46.517,29.081c0.32,0.019,0.636-0.001,0.952-0.017c0.316-0.021,0.629-0.073,0.942-0.115
			c0.628-0.081,1.255-0.167,1.882-0.257l-0.002-0.018c-0.632,0.039-1.264,0.083-1.895,0.133c-0.316,0.023-0.633,0.035-0.946,0.08
			c-0.313,0.049-0.626,0.094-0.936,0.178L46.517,29.081z"/>
		<path class="st2" d="M50.088,29.122c-0.64,0.17-1.278,0.346-1.915,0.526c-0.319,0.088-0.641,0.167-0.954,0.276
			c-0.311,0.113-0.624,0.223-0.925,0.37l0.005,0.017c0.331-0.049,0.651-0.134,0.972-0.216c0.32-0.086,0.63-0.203,0.943-0.31
			c0.628-0.21,1.254-0.426,1.878-0.646L50.088,29.122z"/>
		<path class="st2" d="M48.095,30.527c-0.315,0.147-0.636,0.285-0.941,0.451c-0.304,0.17-0.609,0.338-0.897,0.539l0.008,0.016
			c0.334-0.11,0.651-0.254,0.97-0.395c0.316-0.145,0.619-0.319,0.925-0.483c0.615-0.326,1.228-0.656,1.839-0.991l-0.008-0.016
			C49.356,29.937,48.725,30.23,48.095,30.527z"/>
	</g>
	<polygon class="st4" points="51.297,30.313 51.059,31.976 50.216,31.976 50.756,30.541 	"/>
	<path class="st2" d="M51.512,29.354c-0.044,0.231-0.098,0.45-0.204,0.636c-0.105,0.186-0.25,0.34-0.43,0.445
		c-0.088,0.054-0.186,0.095-0.283,0.121c-0.098,0.029-0.18,0.026-0.267-0.011c-0.175-0.074-0.283-0.287-0.328-0.515
		c-0.025,0.115-0.022,0.238,0.011,0.359c0.037,0.119,0.111,0.238,0.23,0.312c0.113,0.081,0.276,0.094,0.401,0.068
		c0.127-0.025,0.244-0.074,0.355-0.136c0.217-0.131,0.39-0.335,0.476-0.569C51.562,29.833,51.565,29.582,51.512,29.354z"/>
	<g>
		<path class="st1" d="M2.439,36.597c0-0.982,0.063-1.964,0.187-2.938c0.257-2.019,0.787-3.988,1.549-5.861l0,0l0,0
			c0.056-0.138,0.115-0.275,0.174-0.412c0.056-0.131,0.114-0.262,0.172-0.392c0.065-0.145,0.13-0.29,0.198-0.433
			c0.097-0.205,0.197-0.408,0.299-0.611c0.064-0.127,0.131-0.253,0.197-0.379c0.079-0.15,0.161-0.299,0.243-0.447
			c0.084-0.152,0.17-0.303,0.258-0.453c0.101-0.173,0.204-0.345,0.309-0.516c0.065-0.105,0.13-0.209,0.196-0.313
			c0.142-0.223,0.286-0.444,0.435-0.662c0.05-0.073,0.102-0.145,0.152-0.217c0.126-0.181,0.255-0.36,0.386-0.538
			c0.056-0.076,0.112-0.153,0.169-0.228c0.17-0.225,0.344-0.447,0.522-0.667c0.049-0.061,0.1-0.12,0.15-0.181
			c0.162-0.196,0.327-0.39,0.496-0.581c0.037-0.043,0.074-0.086,0.112-0.128c0.198-0.223,0.402-0.441,0.608-0.656
			c0.049-0.051,0.099-0.102,0.148-0.153c0.215-0.22,0.432-0.438,0.655-0.65c4.626-4.403,10.982-7.027,17.405-6.708
			c4.964,0.247,11.95,2.711,14.219-3.713c0.052-0.147,0.097-0.293,0.138-0.438c0.012-0.043,0.022-0.085,0.033-0.127
			c0.028-0.106,0.054-0.213,0.077-0.318c0.009-0.043,0.018-0.087,0.026-0.13c0.022-0.114,0.041-0.227,0.057-0.34
			c0.004-0.03,0.009-0.059,0.013-0.089c0.096-0.764,0.053-1.505-0.112-2.205c0.001-0.001,0.001-0.003,0.002-0.004
			c-0.587-2.487-2.716-4.45-5.581-5.078c3.088,1.043,4.2,3.49,3.796,5.328c-0.006,0.023-0.009,0.045-0.016,0.067
			c0,0.002-0.001,0.003-0.001,0.005c-0.047,0.172-0.1,0.344-0.161,0.517c-2.268,6.424-9.254,3.96-14.219,3.713
			c-6.423-0.319-12.779,2.305-17.405,6.708c-2.547,2.425-4.568,5.382-5.886,8.628l-0.001-0.002
			c-1.178,2.688-3.673,9.439-1.711,17.586C2.756,51.001,9.5,60.777,24.605,60.777l0,0C12.186,59.709,2.439,49.292,2.439,36.597z"/>
	</g>
	<g>
		<path class="st2" d="M59.997,50.998c0.883-0.496,1.931-0.862,2.528-1.235c1.014-0.634,1.995-1.329,2.888-2.126
			c1.311-1.17,2.516-2.628,2.901-4.384c0.133-0.607,0.16-1.233,0.08-1.849c-0.088-0.674-0.28-1.274-0.573-1.8
			c-0.348-0.623-0.838-1.144-1.475-1.56c-0.203-0.133-0.415-0.25-0.636-0.353c0.528,0.655,0.854,1.454,0.977,2.398
			c0.233,1.792-0.43,3.543-1.986,5.252c-1.393,1.53-3.502,3.028-6.328,4.492c-0.135,0.081-0.268,0.168-0.397,0.259
			c-1.23,0.872-2.083,2.188-1.176,3.678c0.504,0.828,1.239,1.385,2.093,1.812c0.912,0.456,2.179,0.379,3.19,0.482
			c0.583,0.06,1.23,0.153,1.597,0.61c0.467,0.583,0.243,1.436-0.002,2.141c0.539-0.394,1.038-0.886,1.27-1.513
			s0.139-1.407-0.359-1.852c-0.48-0.429-1.183-0.455-1.826-0.482c-1.091-0.045-2.205-0.163-3.192-0.63
			c-0.584-0.277-1.154-0.83-1.111-1.527C58.507,52.025,59.182,51.456,59.997,50.998z"/>
	</g>
	<g>
		<path class="st2" d="M89.553,51.474c-2.087,12.195-16.667,15.443-16.383-0.228l0.055-12.87h-3.507l-0.374-4.125h3.973l0.377-8.706
			l6.797-2.677l0.113,10.642l3.767-0.216l0.216,4.325l-4.109,0.216l-0.175,17.514c-0.078,6.667,6.38,1.71,7.2-3.875H89.553z"/>
	</g>
	<g>
		<path class="st1" d="M58.373,49.834c5.983-3.099,8.755-6.347,8.314-9.744c-0.191-1.472-0.874-2.592-2.048-3.36
			c-1.175-0.768-2.639-1.039-4.393-0.811c-3.378,0.439-6.243,2.456-8.596,6.052c-2.353,3.596-3.27,7.394-2.75,11.394
			c0.348,2.679,1.416,4.737,3.205,6.174c1.788,1.437,3.966,1.989,6.532,1.655c1.57-0.204,3.209-0.585,4.427-1.661
			c0.669-0.592,1.201-1.693,0.787-2.57c-0.513-1.087-1.897-0.957-2.89-0.972c-1.636-0.025-3.293-0.796-4.16-2.221
			C55.798,52.124,56.944,50.691,58.373,49.834z M55.605,46.481c0.391-2.205,1.12-3.924,2.186-5.154
			c1.066-1.231,2.051-1.766,2.955-1.605c0.958,0.17,1.322,0.913,1.088,2.228C61.363,44.606,59.286,46.116,55.605,46.481z"/>
	</g>
</g>
</svg>